# xmcd
#
# Track frame offsets: 
#        150
#        15743
#        40162
#        48196
#        60012
#        86549
#        101160
#        109959
#        147015
#        175338
#        205436
#        224959
#
# Disc length: 3371 seconds
#
# Revision: 0
# Processed by: cddbd v1.5.2PL0 Copyright (c) Steve Scherf et al.
# Submitted via: ExactAudioCopy v0.95b4
#
DISCID=aa0d290c
DTITLE=Budgie - Squawk
DYEAR=1972
DGENRE=Rock
TTITLE0=Whiskey River
TTITLE1=Rocking Man
TTITLE2=Rolling Home Again
TTITLE3=Make Me Happy
TTITLE4=Hot As A Docker's Armpit
TTITLE5=Drug Store Woman
TTITLE6=Bottled
TTITLE7=Young Is A World
TTITLE8=Stranded
TTITLE9=Homicidal Suicidal(Bonus)
TTITLE10=Guts(Bonus)
TTITLE11=Rape Of The Locks(Bonus)
EXTD=
EXTT0=
EXTT1=
EXTT2=
EXTT3=
EXTT4=
EXTT5=
EXTT6=
EXTT7=
EXTT8=
EXTT9=
EXTT10=
EXTT11=
PLAYORDER=
